<svg width="16" height="16" viewBox="0 0 16 16" fill="none" xmlns="http://www.w3.org/2000/svg">
<path fill-rule="evenodd" clip-rule="evenodd" d="M5 3.25005C5 3.44897 4.92099 3.63973 4.78033 3.78038C4.63968 3.92104 4.44892 4.00005 4.25 4.00005C4.05109 4.00005 3.86033 3.92104 3.71967 3.78038C3.57902 3.63973 3.5 3.44897 3.5 3.25005C3.5 3.05114 3.57902 2.86037 3.71967 2.71972C3.86033 2.57907 4.05109 2.50005 4.25 2.50005C4.44892 2.50005 4.63968 2.57907 4.78033 2.71972C4.92099 2.86037 5 3.05114 5 3.25005ZM5 5.37205C5.50042 5.19513 5.92217 4.847 6.19073 4.38919C6.45929 3.93138 6.55735 3.39337 6.4676 2.87025C6.37785 2.34713 6.10605 1.87258 5.70025 1.53047C5.29445 1.18837 4.78077 1.00073 4.25 1.00073C3.71924 1.00073 3.20556 1.18837 2.79976 1.53047C2.39396 1.87258 2.12216 2.34713 2.03241 2.87025C1.94265 3.39337 2.04072 3.93138 2.30928 4.38919C2.57784 4.847 2.99959 5.19513 3.5 5.37205V6.25005C3.5 6.84679 3.73706 7.41909 4.15901 7.84104C4.58097 8.263 5.15327 8.50005 5.75 8.50005H7.25V10.6281C6.74932 10.805 6.3273 11.1532 6.05855 11.6112C5.78981 12.0692 5.69164 12.6075 5.78139 13.1309C5.87115 13.6543 6.14306 14.1291 6.54905 14.4714C6.95504 14.8137 7.46897 15.0014 8 15.0014C8.53104 15.0014 9.04497 14.8137 9.45096 14.4714C9.85695 14.1291 10.1289 13.6543 10.2186 13.1309C10.3084 12.6075 10.2102 12.0692 9.94146 11.6112C9.67271 11.1532 9.25069 10.805 8.75 10.6281V8.50005H10.25C10.8467 8.50005 11.419 8.263 11.841 7.84104C12.263 7.41909 12.5 6.84679 12.5 6.25005V5.37205C13.0004 5.19513 13.4222 4.847 13.6907 4.38919C13.9593 3.93138 14.0574 3.39337 13.9676 2.87025C13.8778 2.34713 13.6061 1.87258 13.2002 1.53047C12.7944 1.18837 12.2808 1.00073 11.75 1.00073C11.2192 1.00073 10.7056 1.18837 10.2998 1.53047C9.89396 1.87258 9.62216 2.34713 9.53241 2.87025C9.44265 3.39337 9.54072 3.93138 9.80928 4.38919C10.0778 4.847 10.4996 5.19513 11 5.37205V6.25005C11 6.44897 10.921 6.63973 10.7803 6.78038C10.6397 6.92104 10.4489 7.00005 10.25 7.00005H5.75C5.55109 7.00005 5.36033 6.92104 5.21967 6.78038C5.07902 6.63973 5 6.44897 5 6.25005V5.37205ZM8.75 12.7501C8.75 12.949 8.67099 13.1397 8.53033 13.2804C8.38968 13.421 8.19892 13.5001 8 13.5001C7.80109 13.5001 7.61033 13.421 7.46967 13.2804C7.32902 13.1397 7.25 12.949 7.25 12.7501C7.25 12.5511 7.32902 12.3604 7.46967 12.2197C7.61033 12.0791 7.80109 12.0001 8 12.0001C8.19892 12.0001 8.38968 12.0791 8.53033 12.2197C8.67099 12.3604 8.75 12.5511 8.75 12.7501ZM11.75 4.00005C11.9489 4.00005 12.1397 3.92104 12.2803 3.78038C12.421 3.63973 12.5 3.44897 12.5 3.25005C12.5 3.05114 12.421 2.86037 12.2803 2.71972C12.1397 2.57907 11.9489 2.50005 11.75 2.50005C11.5511 2.50005 11.3603 2.57907 11.2197 2.71972C11.079 2.86037 11 3.05114 11 3.25005C11 3.44897 11.079 3.63973 11.2197 3.78038C11.3603 3.92104 11.5511 4.00005 11.75 4.00005Z" fill="#6C606C"/>
</svg>
